<svg xmlns="http://www.w3.org/2000/svg" viewBox="0 0 2218.5 1000"><path d="M151.6 301.2c3.2-4 8.5-6 13.6-5.7 36.6-1 73.5 8 105.6 25.6 26.5 14.6 49.8 35 67.7 59.3 12.5 16.7 22.2 35.4 29.6 55 19.2-39 50.5-71.6 88.6-92 34-18.5 73-27.3 111.6-25 49.2 2.8 97 24 132.3 58.2 17.5 17.4 33 37.3 43.2 60 11.2-32.5 30.7-62 56-85 27.2-25.6 61.5-43.3 98-51 17.2-4 35-5.4 52.4-4.3 5.8.3 11 4.2 13.2 9.5 1 2.6 1 5.5 2 8.2 26.5 57.5 39.6 120.8 42.8 184 3.2 70-5.4 140.8-29.2 206.8-2 7-9.4 10.5-15.8 12.8-12 1.4-24 2-36 .8-62-3.2-121-37-156.6-87.7-6.5-9.2-12.3-19-17.4-29-11.4 31.8-30.5 61-55.3 84-26.7 24.8-60 42.4-95.6 50.5-11.3 3-23 3.5-34.8 4.6-9.7 1-19.5.3-29.2-.5-32.8-2.2-65-13-92.6-30.7-12.6-7.3-23.7-16.8-34.4-26.6-13.5-12.7-24.8-27.7-34.7-43.4-7-12-13.4-24.8-18-38-14.3 29.3-35.6 55.2-61.6 75-30.8 23-68 38.2-106.5 41-9.3.7-18.7 2-28 1-3.2-.2-6.8-1.4-9.6.7-5.5 3.3-13 2.3-17.7-2-2.6-2.2-4-5.2-5-8.2-15.7-43.4-24.6-89.2-28-135.2-4.2-56.8 0-114.3 13-169.8 7.3-31 17.7-61.2 31.4-90 2.2-4.2 2-9.3 5.2-12.8m23.3 25.2c-7 14-13.2 28.4-18 43.2-11.2 32-18 65.3-22 99-8.4 73-2.6 148 20 218 8.7.8 17.5 1.6 26.2.5 34.7-1.3 68.6-14.2 96.3-35 29-22 51-52.5 62.5-87-21.3 8.8-44 14.4-67 16-8.6.6-17.3 1.7-26 1.2-7.5-.4-13.8-7-14-14.5-.7-8 6-16 14-16.2 14.5-.2 28.8-1.4 43-3.7 19.4-3.7 38.3-10.3 56-19.4 0-10.5 1-21 2.4-31.4-1.8-1-3.7-2-5.3-3.4-25-26-57.4-45-92.4-54.2-3.7-1-7.6-2-10.3-4.8-5.3-5-6.2-13.7-2-19.6 3.4-5.5 10.6-8 17-6.3 30.4 7.8 59.6 21.4 84.4 40.8-14-44-46.3-81.8-87.4-103-23.7-12.6-50.5-19.5-77.4-20m717.6 7c-34.8 9.7-66.2 30.7-89.2 58.6-12 14.5-21.2 30.8-28.3 48 25.2-18 54-31.3 84-38.2 4.6-1 9.6.2 13 3.2 5.4 4.2 7.3 12 4.5 18.2-2 4.7-6.4 8-11.4 9-36 8.5-69.7 27.2-95.8 53.6-1.8 2-4 3.6-6.2 5-.5 7.3 1.3 14.3 1.7 21.4 11.3 5.6 23.2 10 35.4 13.4 18 5.3 36.6 6.6 55 7.3 6-.2 12.5-1.7 17.6 2 8 5 9.2 17.3 2.4 23.8-5 5.5-13.2 4.8-20 5-8.7-.2-17.4-1-26-1.6-21.6-1.8-42.6-7.5-62.6-15.3 3.7 15.4 9 30.7 16.5 44.8 7.5 13.6 16 26.8 26.6 38.3 5.3 6 11.6 11 17.4 16.6 24 20 53 33.6 83.7 38.8 13.6 1.7 27.3 3.3 41 2 6.6-18.8 11.6-38 15.6-57.6 13-65 13.5-132.5 2-197.8-6.5-36.2-17-71.8-32.4-105.2-14.8.6-30 2.3-44.4 6.6M493.4 360L724 590.8c5.6-15.8 9.2-32.3 10-49-.5-6.7-1.5-13.3-2.5-20-.2-9 .5-18-.3-27-8-42.8-32.5-82.3-67-109-14.3-10.4-29.7-19.7-46.4-25.7-39.7-15-84.8-14.8-124.4 0m-68 45.8l254 254c12.2-11.4 22.4-24.8 30.8-39.2-82-82-164.2-164-246.2-246.2-14.2 8.6-27.2 19.3-38.6 31.4m-36.2 58c-8 20-11.8 41.4-12.4 63-.2 3.7 1.2 7.3 1 11-1 9.8 1 19.5 3 29 6.2 32 22 61.6 43.6 85.6C452 682 489.6 702.8 530 708.2c10.2 1 20.6 2.2 31 1.8 13-1 26.2-1.7 39-5.4 19.6-5 38.2-13.6 55-25l-249-249c-6.3 10.5-12.5 21.4-16.8 33zM1263 314c6.4-3 13.5-4 20.2-6.3 1.3-.4 2.6-.6 4-.6 33.2-1 66.8 5.8 97 20.2 26 12.4 49.7 30.4 68.6 52.4 17 19.7 30.2 42.6 39.3 67 17.2-34.6 44-64.5 76.6-85 35-22.3 76.7-33.6 118-32.2 38 1.2 75.6 13 107.3 34 25 16.2 46.3 38.3 62.5 63.5 4.2 6.6 8.2 13.4 11.3 20.6 11-32.4 30.7-62 56-85 27-25.3 61.2-43 97.4-51 18-4 36.6-5.6 55-4 10 3.5 20 7.6 28.3 14.3 22.4 16.5 35 44.4 35.2 72 .3 19.8-5.6 39.7-17.2 55.8 13.4 10.8 23.3 25.6 29 42 8.6 26 5.7 56.2-8.7 79.8-2.4 3.7-5 7.2-7.7 10.7 19 24.4 24.2 58.4 14.4 87.6-8.4 25.7-29 48.3-55.7 55.4-2.7 1.4-5.3 3.2-8.4 3.4-7 .5-14 1.2-21 1.3-12.3-.5-24.6-1.3-36.7-3.3-31-5.6-60.6-18.5-86-37.2-27.4-19.8-49.5-46.8-64.4-77-11.3 31.8-30.4 61-55.3 84-27 25.2-60.7 43-96.6 51-11.2 2.7-22.7 3.3-34 4.4-10.5 1-21 0-31.3-.7-38-3-74.7-18-105.3-40.5-14.3-11.2-28-23.5-39-38-14.2-18-25.5-38.4-33-60-14.6 30-36.8 56.3-63.5 76.3-31 23-68.4 37.7-107 40.2l-14 1c-8 .5-16-1-24-1-8.5.6-16.7-2.4-24.3-5.6-15.5-6.8-28.4-18.6-37-33-19-31-18.3-73.2 2.8-103-9.7-10.3-16.6-23-20.5-36.6-2.5-9.3-4.3-19-3.5-28.6-.6-13.4 3-26.7 8.7-38.7 6.2-13.6 16-25.4 28-34.3-11.4-17-17-37.6-15.7-58 1.5-22.2 10.3-44.4 26.4-60 6.5-7.5 15-13 23.8-17.3m14 28c-9 3.4-16 10.3-21.6 17.7-17.3 23.6-15 59.5 5.4 80.6 4.5 4.8 5 12.7 1.5 18.2-1.5 2.3-2.8 4.7-4 7-2.8 4.7-8.4 6.3-12.4 9.5-11.5 8.4-19 21.4-22.2 35-3.8 21 1.2 44.5 17.3 59.2 4 4 10 6.2 12.6 11.5 3 5.8 1.8 13.5-3 18-2.3 2.4-5.5 3.6-8.7 4.4-3 5.7-6.7 11-8.3 17-4 11.3-4.6 23.8-2 35.4 3 12 8.5 24 18.5 31.5 5.8 5.3 13 9.4 20.8 11 6.4 0 12.7.5 19 1 5.8.6 11.7-.3 17.5-.6 37.7-2 74.2-17.5 102.7-42 28.2-24 48.5-57 57.6-93-32.4 17.3-69 27.4-105.8 28-7.8-.3-14.4-7.5-14.2-15.3-.2-7.7 6.4-15 14.2-15.3 10.3-.7 20.7-1.5 31-3.3 27.6-5.4 54.2-16 77.5-31.7l1-9.8c-5-6-11-11-17.2-16-24-20-53.2-33.5-83.5-40.6-4.8-1.3-10.2-1.4-14.2-4.8-5.5-4.4-7.2-12.7-4-19 3-6.2 10.6-9.6 17.3-8 34.7 7 68.2 21.2 96.7 42.6-2-7.3-4.6-14.4-7.2-21.5-16-39-46-72.2-83.8-91.2-24-12.5-50.7-19.2-77.6-19.7-7.2-.6-14.2 2-21 4.3m752-.3c-26.3 5.6-51.5 17-72.7 33.7-27.8 21.5-49.2 51.3-60.2 84.6 22.5-13 46.7-23 72.2-28 7.4-1.6 15.4 3 17.7 10.3 2.5 7-1 15.7-8 18.8-5 2.3-11 2.6-16.2 4.6-27.3 7.4-53 20.6-75 38.4.3 8.5 2.2 17 2.3 25.4 29.3 20.2 64 32.6 99.5 35.6 6 .8 11 5.5 12.4 11.2 2 6.8-1.7 14.7-8 17.8-5.2 2.8-11.3 1.2-16.8.8-29-3.6-57.2-13-83-26.6 6.3 22.4 17.3 43.3 31.3 61.8 8.2 11.3 18.6 20.7 29 29.8 23.3 18.7 51.3 31.6 80.7 36.8 16 2.2 32 3.7 48 1.5 8-3.8 16.6-7.3 23-13.6 22-21 24.2-58.8 5.6-82.8-2.6-3-4.8-6.5-7.6-9.3-4.7-4.5-5.7-12.2-2.6-18 2.7-4.7 7.8-7.5 11-12 7-8.6 11.4-19.3 13-30.2 4-24.5-8-52-30.8-63.3-7.7-3.6-11.8-13.2-8.8-21.2 1.8-5.3 7-8 10.2-12.5 18.2-22 18.2-56.7.4-79-6.7-8.4-16-14.8-26.2-17.8-13.8-.7-27.2 1.4-40.4 3.5m-356.7 18.8c-26.3 1-52.3 8-75.6 20.4-31.7 16.7-58.3 43.2-74.8 75-18.2 33.7-24.7 73.3-19.4 111 2.3 11.7 4.4 23.5 8.6 34.7 6.6 18.4 16 35.8 28 51 9.6 13 21.8 24 34.4 33.7 25.8 19 56.6 31.6 88.6 34 9 .7 18 1.5 26.8.6 10.4-1 21-1.5 31-4 37-8.7 71-29.5 95.4-58.5 23-27 37.7-61 41.7-96.3.5-4.3 1.3-8.7.5-13-2-12-2.4-24-2.2-36.2.3-9.3-3-18.2-5.4-27-11.3-35.7-33.8-67.7-63.7-90.2-13.5-9.5-27.7-18-43.2-23.8-22.3-8.7-46.7-12.6-70.7-11.5z"/></svg>